<mxfile host="app.diagrams.net" modified="2021-11-02T11:22:03.889Z" agent="5.0 (Windows NT 10.0; Win64; x64) AppleWebKit/537.36 (KHTML, like Gecko) Chrome/93.0.4577.82 YaBrowser/21.9.2.169 Yowser/2.5 Safari/537.36" etag="oupofNZgS0D2J_2qAL_b" version="15.6.5" type="github">
  <diagram id="w1VLvrG4Kwi5wJbM5iSj" name="Page-1">
    <mxGraphModel dx="1422" dy="765" grid="1" gridSize="10" guides="1" tooltips="1" connect="1" arrows="1" fold="1" page="1" pageScale="1" pageWidth="827" pageHeight="1169" math="0" shadow="0">
      <root>
        <mxCell id="0" />
        <mxCell id="1" parent="0" />
        <mxCell id="bnepUTZ9J0_4N8WF2VBK-8" style="edgeStyle=orthogonalEdgeStyle;rounded=0;orthogonalLoop=1;jettySize=auto;html=1;exitX=0;exitY=0.25;exitDx=0;exitDy=0;entryX=1;entryY=0.25;entryDx=0;entryDy=0;fontColor=default;strokeColor=default;labelBackgroundColor=default;" edge="1" parent="1" source="bnepUTZ9J0_4N8WF2VBK-1" target="bnepUTZ9J0_4N8WF2VBK-3">
          <mxGeometry relative="1" as="geometry" />
        </mxCell>
        <mxCell id="bnepUTZ9J0_4N8WF2VBK-12" style="edgeStyle=orthogonalEdgeStyle;rounded=0;orthogonalLoop=1;jettySize=auto;html=1;exitX=1;exitY=0.75;exitDx=0;exitDy=0;labelBackgroundColor=default;fontColor=default;strokeColor=default;" edge="1" parent="1" source="bnepUTZ9J0_4N8WF2VBK-1" target="bnepUTZ9J0_4N8WF2VBK-6">
          <mxGeometry relative="1" as="geometry">
            <mxPoint x="640" y="360" as="targetPoint" />
          </mxGeometry>
        </mxCell>
        <mxCell id="bnepUTZ9J0_4N8WF2VBK-1" value="gRPC" style="rounded=0;whiteSpace=wrap;html=1;fillColor=default;strokeColor=default;fontColor=default;labelBackgroundColor=default;" vertex="1" parent="1">
          <mxGeometry x="480" y="240" width="120" height="60" as="geometry" />
        </mxCell>
        <mxCell id="bnepUTZ9J0_4N8WF2VBK-9" style="edgeStyle=orthogonalEdgeStyle;rounded=0;orthogonalLoop=1;jettySize=auto;html=1;exitX=0;exitY=0.25;exitDx=0;exitDy=0;entryX=1;entryY=0.25;entryDx=0;entryDy=0;fontColor=default;strokeColor=default;labelBackgroundColor=default;" edge="1" parent="1" source="bnepUTZ9J0_4N8WF2VBK-3" target="bnepUTZ9J0_4N8WF2VBK-4">
          <mxGeometry relative="1" as="geometry" />
        </mxCell>
        <mxCell id="bnepUTZ9J0_4N8WF2VBK-11" style="edgeStyle=orthogonalEdgeStyle;rounded=0;orthogonalLoop=1;jettySize=auto;html=1;exitX=1;exitY=0.75;exitDx=0;exitDy=0;entryX=0;entryY=0.75;entryDx=0;entryDy=0;labelBackgroundColor=default;fontColor=default;strokeColor=default;" edge="1" parent="1" source="bnepUTZ9J0_4N8WF2VBK-3" target="bnepUTZ9J0_4N8WF2VBK-1">
          <mxGeometry relative="1" as="geometry" />
        </mxCell>
        <mxCell id="bnepUTZ9J0_4N8WF2VBK-3" value="Business logic" style="rounded=0;whiteSpace=wrap;html=1;fontColor=default;strokeColor=default;fillColor=default;labelBackgroundColor=default;" vertex="1" parent="1">
          <mxGeometry x="280" y="240" width="120" height="60" as="geometry" />
        </mxCell>
        <mxCell id="bnepUTZ9J0_4N8WF2VBK-10" style="edgeStyle=orthogonalEdgeStyle;rounded=0;orthogonalLoop=1;jettySize=auto;html=1;exitX=1;exitY=0.75;exitDx=0;exitDy=0;entryX=0;entryY=0.75;entryDx=0;entryDy=0;labelBackgroundColor=default;fontColor=default;strokeColor=default;" edge="1" parent="1" source="bnepUTZ9J0_4N8WF2VBK-4" target="bnepUTZ9J0_4N8WF2VBK-3">
          <mxGeometry relative="1" as="geometry" />
        </mxCell>
        <mxCell id="bnepUTZ9J0_4N8WF2VBK-4" value="Data Base" style="rounded=0;whiteSpace=wrap;html=1;fontColor=default;strokeColor=default;fillColor=default;labelBackgroundColor=default;" vertex="1" parent="1">
          <mxGeometry x="80" y="240" width="120" height="60" as="geometry" />
        </mxCell>
        <mxCell id="bnepUTZ9J0_4N8WF2VBK-7" style="edgeStyle=orthogonalEdgeStyle;rounded=0;orthogonalLoop=1;jettySize=auto;html=1;entryX=1;entryY=0.25;entryDx=0;entryDy=0;fontColor=default;strokeColor=default;labelBackgroundColor=default;" edge="1" parent="1" source="bnepUTZ9J0_4N8WF2VBK-5" target="bnepUTZ9J0_4N8WF2VBK-1">
          <mxGeometry relative="1" as="geometry" />
        </mxCell>
        <mxCell id="bnepUTZ9J0_4N8WF2VBK-5" value="Client 1" style="sketch=0;pointerEvents=1;shadow=0;dashed=0;html=1;strokeColor=default;fillColor=#505050;labelPosition=center;verticalLabelPosition=bottom;verticalAlign=top;outlineConnect=0;align=center;shape=mxgraph.office.devices.workstation_pc;fontColor=default;labelBackgroundColor=default;" vertex="1" parent="1">
          <mxGeometry x="690" y="181" width="53" height="59" as="geometry" />
        </mxCell>
        <mxCell id="bnepUTZ9J0_4N8WF2VBK-6" value="Client 2" style="sketch=0;pointerEvents=1;shadow=0;dashed=0;html=1;strokeColor=default;fillColor=#505050;labelPosition=center;verticalLabelPosition=bottom;verticalAlign=top;outlineConnect=0;align=center;shape=mxgraph.office.devices.workstation_pc;fontColor=default;labelBackgroundColor=default;" vertex="1" parent="1">
          <mxGeometry x="690" y="300" width="53" height="59" as="geometry" />
        </mxCell>
      </root>
    </mxGraphModel>
  </diagram>
</mxfile>
